<svg width="510" height="362" viewBox="0 0 510 362" fill="none" xmlns="http://www.w3.org/2000/svg">
<rect x="46.5179" y="204" width="188.245" height="188.245" rx="20" transform="rotate(22 46.5179 204)" fill="url(#paint0_radial_1_28)"/>
<rect x="46.8354" y="93" width="119.687" height="119.687" rx="20" transform="rotate(22 46.8354 93)" fill="url(#paint1_radial_1_28)"/>
<rect x="242.835" y="230" width="119.687" height="119.687" rx="20" transform="rotate(22 242.835 230)" fill="url(#paint2_radial_1_28)"/>
<rect x="164.835" y="60" width="119.687" height="119.687" rx="20" transform="rotate(22 164.835 60)" fill="url(#paint3_radial_1_28)"/>
<rect x="398.835" y="107" width="119.687" height="119.687" rx="20" transform="rotate(22 398.835 107)" fill="url(#paint4_radial_1_28)"/>
<rect x="209.835" y="164" width="119.687" height="119.687" rx="20" transform="rotate(22 209.835 164)" fill="url(#paint5_radial_1_28)"/>
<rect x="242.835" width="119.687" height="119.687" rx="20" transform="rotate(22 242.835 0)" fill="url(#paint6_radial_1_28)"/>
<rect x="287.835" y="93" width="119.687" height="119.687" rx="20" transform="rotate(22 287.835 93)" fill="url(#paint7_radial_1_28)"/>
<defs>
<radialGradient id="paint0_radial_1_28" cx="0" cy="0" r="1" gradientUnits="userSpaceOnUse" gradientTransform="translate(186.572 244.661) rotate(71.9166) scale(155.253 185.329)">
<stop stop-color="white"/>
<stop offset="1" stop-color="#0066FF"/>
</radialGradient>
<radialGradient id="paint1_radial_1_28" cx="0" cy="0" r="1" gradientUnits="userSpaceOnUse" gradientTransform="translate(135.882 118.852) rotate(71.9166) scale(98.71 117.833)">
<stop stop-color="white"/>
<stop offset="1" stop-color="#0066FF"/>
</radialGradient>
<radialGradient id="paint2_radial_1_28" cx="0" cy="0" r="1" gradientUnits="userSpaceOnUse" gradientTransform="translate(331.882 255.852) rotate(71.9166) scale(98.71 117.833)">
<stop stop-color="white"/>
<stop offset="1" stop-color="#0066FF"/>
</radialGradient>
<radialGradient id="paint3_radial_1_28" cx="0" cy="0" r="1" gradientUnits="userSpaceOnUse" gradientTransform="translate(253.882 85.8523) rotate(71.9166) scale(98.71 117.833)">
<stop stop-color="white"/>
<stop offset="1" stop-color="#0066FF"/>
</radialGradient>
<radialGradient id="paint4_radial_1_28" cx="0" cy="0" r="1" gradientUnits="userSpaceOnUse" gradientTransform="translate(487.882 132.852) rotate(71.9166) scale(98.71 117.833)">
<stop stop-color="white"/>
<stop offset="1" stop-color="#0066FF"/>
</radialGradient>
<radialGradient id="paint5_radial_1_28" cx="0" cy="0" r="1" gradientUnits="userSpaceOnUse" gradientTransform="translate(298.882 189.852) rotate(71.9166) scale(98.71 117.833)">
<stop stop-color="white"/>
<stop offset="1" stop-color="#0066FF"/>
</radialGradient>
<radialGradient id="paint6_radial_1_28" cx="0" cy="0" r="1" gradientUnits="userSpaceOnUse" gradientTransform="translate(331.882 25.8523) rotate(71.9166) scale(98.71 117.833)">
<stop stop-color="white"/>
<stop offset="1" stop-color="#0066FF"/>
</radialGradient>
<radialGradient id="paint7_radial_1_28" cx="0" cy="0" r="1" gradientUnits="userSpaceOnUse" gradientTransform="translate(376.882 118.852) rotate(71.9166) scale(98.71 117.833)">
<stop stop-color="white"/>
<stop offset="1" stop-color="#0066FF"/>
</radialGradient>
</defs>
</svg>
